<?xml version="1.0" encoding="utf-8"?>
<!-- Generator: Adobe Illustrator 23.0.2, SVG Export Plug-In . SVG Version: 6.00 Build 0)  -->
<svg version="1.1" id="Camada_1" xmlns="http://www.w3.org/2000/svg" xmlns:xlink="http://www.w3.org/1999/xlink" x="0px" y="0px"
	 viewBox="0 0 32 32" style="enable-background:new 0 0 32 32;" xml:space="preserve">
<style type="text/css">
	.st0{fill:#FFE6C5;}
</style>
<path class="st0" d="M16,3C8.8,3,3,8.8,3,16s5.8,13,13,13s13-5.8,13-13S23.2,3,16,3z M16,5c6.1,0,11,4.9,11,11s-4.9,11-11,11
	S5,22.1,5,16S9.9,5,16,5z M17.8,9.3l-6,6L11.1,16l0.7,0.7l6,6l1.4-1.4L13.9,16l5.3-5.3L17.8,9.3z"/>
</svg>
