<svg xmlns="http://www.w3.org/2000/svg" xmlns:xlink="http://www.w3.org/1999/xlink" viewBox="0 0 490 154.67"><defs><style>.cls-1{fill:url(#Gradiente_sem_nome_30);}</style><linearGradient id="Gradiente_sem_nome_30" x1="245.54" y1="134.9" x2="244.47" y2="41.03" gradientUnits="userSpaceOnUse"><stop offset="0" stop-color="#9c3d54"/><stop offset="1" stop-color="#e2703a"/></linearGradient></defs><title>Ativo 6</title><g id="Camada_2" data-name="Camada 2"><g id="Camada_1-2" data-name="Camada 1"><path class="cls-1" d="M490,20A20,20,0,0,0,470,0H455a29.56,29.56,0,0,1-29.45,27A29.56,29.56,0,0,1,396.12,0H361.17a29.56,29.56,0,0,1-29.46,27A29.57,29.57,0,0,1,302.26,0H272.45A29.56,29.56,0,0,1,243,27,29.56,29.56,0,0,1,213.55,0H183.74a29.57,29.57,0,0,1-29.45,27A29.56,29.56,0,0,1,124.83,0H95A29.56,29.56,0,0,1,65.57,27,29.56,29.56,0,0,1,36.12,0H20A20,20,0,0,0,0,20V154.67H490Z"/></g></g></svg>