<?xml version="1.0" encoding="utf-8"?>
<!-- Generator: Adobe Illustrator 23.0.2, SVG Export Plug-In . SVG Version: 6.00 Build 0)  -->
<svg version="1.1" id="Camada_1" xmlns="http://www.w3.org/2000/svg" xmlns:xlink="http://www.w3.org/1999/xlink" x="0px" y="0px"
	 viewBox="0 0 32 32" style="enable-background:new 0 0 32 32;" xml:space="preserve">
<style type="text/css">
	.st0{fill:#FCC2A7;}
</style>
<path class="st0" d="M15,4c-0.5,0-1.1,0.2-1.4,0.6S13,5.5,13,6v1H7v2h1v16c0,1.6,1.4,3,3,3h12c1.6,0,3-1.4,3-3V9h1V7h-6V6
	c0-0.5-0.2-1.1-0.6-1.4S19.5,4,19,4H15z M15,6h4v1h-4V6z M10,9h14v16c0,0.6-0.4,1-1,1H11c-0.6,0-1-0.4-1-1V9z M12,12v11h2V12H12z
	 M16,12v11h2V12H16z M20,12v11h2V12H20z"/>
</svg>
