<svg xmlns="http://www.w3.org/2000/svg" viewBox="0 0 30.69 16"><defs><style>.cls-1{fill:#ffe6c5;}</style></defs><title>olho</title><g id="Camada_2" data-name="Camada 2"><g id="Camada_1-2" data-name="Camada 1"><path class="cls-1" d="M15.34,0C7,0,.59,7.34.59,7.34L0,8l.59.66s5.85,6.66,13.63,7.28a10.58,10.58,0,0,0,2.25,0c7.78-.62,13.62-7.28,13.62-7.28l.6-.66-.6-.66S23.68,0,15.34,0Zm0,2a14.36,14.36,0,0,1,6,1.41,6.85,6.85,0,0,1,1,3.59,7,7,0,0,1-6.21,7h-.07c-.24,0-.47,0-.72,0l-.78,0A7,7,0,0,1,9.31,3.44h0A14.53,14.53,0,0,1,15.34,2Zm0,2a3,3,0,1,0,3,3A3,3,0,0,0,15.34,4Zm-8.75.94A9.37,9.37,0,0,0,6.34,7a8.9,8.9,0,0,0,1.38,4.78A23,23,0,0,1,2.88,8,24,24,0,0,1,6.59,4.94Zm17.5,0A23.69,23.69,0,0,1,27.81,8,23,23,0,0,1,23,11.78,9,9,0,0,0,24.34,7,8.74,8.74,0,0,0,24.09,4.94Z"/></g></g></svg>